<svg display="none" xmlns="http://www.w3.org/2000/svg">

    <symbol id="close" viewBox="0 0 413.348 413.348">
        <g>
            <path d="m413.348 24.354-24.354-24.354-182.32 182.32-182.32-182.32-24.354 24.354 182.32 182.32-182.32 182.32 24.354 24.354 182.32-182.32 182.32 182.32 24.354-24.354-182.32-182.32z" data-original="#000000" class="active-path" data-old_color="#000000" fill="#FFFFFF66"/>
        </g>
    </symbol>

    <symbol id="location" viewBox="0 0 512 512">
        <g>
            <path d="M256,0C161.896,0,85.333,76.563,85.333,170.667c0,28.25,7.063,56.26,20.49,81.104L246.667,506.5    c1.875,3.396,5.448,5.5,9.333,5.5s7.458-2.104,9.333-5.5l140.896-254.813c13.375-24.76,20.438-52.771,20.438-81.021    C426.667,76.563,350.104,0,256,0z M256,256c-47.052,0-85.333-38.281-85.333-85.333c0-47.052,38.281-85.333,85.333-85.333    s85.333,38.281,85.333,85.333C341.333,217.719,303.052,256,256,256z" data-original="#000000" class="active-path" data-old_color="#000000" fill="#9DA4A9"/>
        </g>
    </symbol>

    <symbol id="mobile" viewBox="0 0 503.604 503.604">
        <g>
            <path d="M337.324,0H167.192c-28.924,0-53.5,23.584-53.5,52.5v398.664c0,28.916,24.056,52.44,52.98,52.44l170.412-0.184    c28.92,0,52.58-23.528,52.58-52.448l0.248-398.5C389.908,23.452,366.364,0,337.324,0z M227.68,31.476h49.36    c4.336,0,7.868,3.52,7.868,7.868c0,4.348-3.532,7.868-7.868,7.868h-49.36c-4.348,0-7.868-3.52-7.868-7.868    C219.812,34.996,223.332,31.476,227.68,31.476z M198.02,33.98c2.916-2.912,8.224-2.952,11.136,0c1.46,1.456,2.324,3.5,2.324,5.588    c0,2.048-0.864,4.088-2.324,5.548c-1.452,1.46-3.504,2.32-5.548,2.32c-2.084,0-4.088-0.86-5.588-2.32    c-1.452-1.456-2.28-3.5-2.28-5.548C195.736,37.48,196.568,35.436,198.02,33.98z M250.772,488.008    c-12.984,0-23.544-10.568-23.544-23.548c0-12.984,10.56-23.548,23.544-23.548s23.544,10.564,23.544,23.548    C274.316,477.44,263.752,488.008,250.772,488.008z M365.488,424.908H141.232V74.756h224.256V424.908z" data-original="#000000" class="active-path" data-old_color="#000000" fill="#263238"/>
        </g>
    </symbol>

    <symbol id="tablet" viewBox="0 0 512 512">
        <g>
            <path d="M394.667,0H117.333C87.936,0,64,23.936,64,53.333v405.333C64,488.064,87.936,512,117.333,512h277.333    C424.064,512,448,488.064,448,458.667V53.333C448,23.936,424.064,0,394.667,0z M256,480c-11.755,0-21.333-9.579-21.333-21.333    s9.579-21.333,21.333-21.333s21.333,9.579,21.333,21.333S267.755,480,256,480z M405.333,416c0,5.888-4.779,10.667-10.667,10.667    H117.333c-5.888,0-10.667-4.779-10.667-10.667V53.333c0-5.888,4.779-10.667,10.667-10.667h277.333    c5.888,0,10.667,4.779,10.667,10.667V416z" data-original="#000000" class="active-path" data-old_color="#000000" fill="#263238"/>
        </g>
    </symbol>

    <symbol id="gmail" viewBox="0 0 512 512">
        <g>
            <rect x="64" y="64" style="fill:#ECEFF1;" width="384" height="384" data-original="#ECEFF1" class=""/><polygon style="fill:#CFD8DC;" points="256,296.384 448,448 448,148.672 " data-original="#CFD8DC" class=""/><path style="fill:#263238" d="M464,64h-16L256,215.616L64,64H48C21.504,64,0,85.504,0,112v288c0,26.496,21.504,48,48,48h16V148.672  l192,147.68L448,148.64V448h16c26.496,0,48-21.504,48-48V112C512,85.504,490.496,64,464,64z" data-original="#F44336" class="active-path" data-old_color="#F44336"/>
        </g>
    </symbol>

    <symbol id="skype" viewBox="0 0 24.08 24.08">
        <g>
            <path d="M23.029,13.494c0.34,0.481,0.599,1.003,0.78,1.575c0.18,0.57,0.271,1.16,0.271,1.771c0,0.875-0.177,1.697-0.527,2.467   c-0.351,0.768-0.834,1.445-1.45,2.033c-0.616,0.582-1.333,1.039-2.157,1.371s-1.691,0.495-2.613,0.495   c-1.313,0-2.491-0.31-3.536-0.929c-0.29,0.04-0.582,0.069-0.877,0.091c-0.296,0.02-0.589,0.028-0.882,0.028   c-1.534,0-2.974-0.275-4.321-0.823c-1.344-0.551-2.521-1.299-3.535-2.252c-1.011-0.949-1.808-2.068-2.382-3.349   c-0.579-1.281-0.868-2.65-0.868-4.105c0-0.282,0.014-0.55,0.044-0.798c0.027-0.248,0.064-0.501,0.102-0.754   C0.358,9.316,0,8.243,0,7.092c0-0.856,0.177-1.665,0.528-2.426c0.35-0.76,0.83-1.421,1.446-1.982C2.59,2.122,3.311,1.68,4.13,1.356   c0.821-0.324,1.692-0.482,2.614-0.482c0.664,0,1.287,0.078,1.879,0.237c0.592,0.161,1.146,0.385,1.657,0.678   c0.289-0.041,0.585-0.07,0.877-0.093c0.296-0.018,0.592-0.029,0.881-0.029c1.539,0,2.984,0.268,4.335,0.801   c1.348,0.529,2.528,1.262,3.542,2.192c1.014,0.934,1.813,2.015,2.393,3.245c0.578,1.232,0.867,2.554,0.867,3.962   C23.176,12.386,23.128,12.929,23.029,13.494z M17.333,16.696c0.474-0.624,0.708-1.357,0.708-2.199c0-0.663-0.132-1.22-0.392-1.672   c-0.271-0.45-0.653-0.827-1.146-1.128c-0.453-0.292-1.042-0.551-1.763-0.783c-0.725-0.182-1.494-0.36-2.307-0.542l-0.891-0.203   c-0.239-0.051-0.429-0.094-0.572-0.133c-0.159-0.039-0.306-0.082-0.446-0.133c-0.132-0.047-0.272-0.102-0.412-0.162   C9.84,9.627,9.612,9.472,9.431,9.29c-0.14-0.157-0.21-0.368-0.21-0.63c0-0.383,0.228-0.725,0.681-1.028   c0.513-0.283,1.14-0.419,1.885-0.41c0.861,0,1.466,0.127,1.807,0.382c0.412,0.302,0.735,0.674,0.966,1.113   c0.201,0.322,0.405,0.562,0.616,0.72c0.201,0.154,0.48,0.237,0.831,0.248c0.395,0,0.722-0.131,0.997-0.395   c0.269-0.246,0.398-0.523,0.391-0.835c0-0.361-0.102-0.716-0.302-1.058c-0.198-0.321-0.531-0.663-0.99-1.026   c-0.232-0.156-0.487-0.299-0.762-0.43c-0.276-0.132-0.586-0.248-0.923-0.346c-0.353-0.096-0.724-0.17-1.115-0.22   c-0.392-0.049-0.82-0.072-1.294-0.072c-1.194,0-2.201,0.146-3.021,0.438c-0.881,0.304-1.548,0.722-2,1.264   C6.536,7.521,6.31,8.141,6.31,8.865c0,0.762,0.219,1.382,0.651,1.86c0.435,0.517,1.024,0.908,1.769,1.173   c0.708,0.283,1.613,0.531,2.723,0.745c0.415,0.098,0.778,0.181,1.099,0.244c0.316,0.062,0.603,0.133,0.854,0.21   c0.473,0.129,0.857,0.345,1.15,0.652c0.313,0.266,0.47,0.608,0.47,1.03c0,0.583-0.286,1.055-0.851,1.415   c-0.534,0.369-1.256,0.551-2.165,0.538c-0.728,0-1.255-0.084-1.589-0.254c-0.415-0.189-0.721-0.429-0.922-0.715   c-0.255-0.326-0.459-0.688-0.623-1.079c-0.143-0.371-0.336-0.651-0.588-0.84c-0.235-0.191-0.51-0.286-0.833-0.286   c-0.412,0-0.752,0.115-1.021,0.341c-0.269,0.257-0.398,0.558-0.392,0.896c0,0.589,0.218,1.178,0.65,1.768   c0.429,0.607,0.98,1.081,1.651,1.422c0.983,0.508,2.218,0.765,3.702,0.775c1.211,0,2.29-0.18,3.229-0.539   C16.196,17.812,16.884,17.305,17.333,16.696z" data-original="#000000" class="active-path" data-old_color="#000000" fill="#263238"/>
        </g>
    </symbol>

    <symbol id="telegram" viewBox="0 0 24 24">
        <g>
            <path d="m9.417 15.181-.397 5.584c.568 0 .814-.244 1.109-.537l2.663-2.545 5.518 4.041c1.012.564 1.725.267 1.998-.931l3.622-16.972.001-.001c.321-1.496-.541-2.081-1.527-1.714l-21.29 8.151c-1.453.564-1.431 1.374-.247 1.741l5.443 1.693 12.643-7.911c.595-.394 1.136-.176.691.218z" data-original="#000000" class="active-path" data-old_color="#000000" fill="#263238"/>
        </g>
    </symbol>

    <symbol id="linkedin" viewBox="0 0 39 39">
        <g>
            <path fill="#263238" fill-rule="nonzero" d="M3019.728,198.651 L2993.531,198.651 C2990.072,198.651 2987.258,195.843 2987.258,192.391 L2987.258,166.26 C2987.258,162.808 2990.072,160 2993.531,160 L3019.728,160 C3023.186,160 3026,162.808 3026,166.26 L3026,192.392 C3026,195.844 3023.186,198.651 3019.728,198.651 Z M3000.34908,191.953213 L3000.35688,191.953213 L3000.35688,175.281347 L2995.17129,175.281347 L2995.17129,191.953213 L3000.34908,191.953213 Z M2997.76018,173.004367 C2999.42113,173.004367 3000.76237,171.663132 3000.76237,170.002183 C3000.76237,168.349033 2999.41333,167 2997.76018,167 C2996.09924,167 2994.758,168.349033 2994.758,170.002183 C2994.758,171.655334 2996.09924,173.004367 2997.76018,173.004367 Z M3019.758,191.953213 L3019.758,182.814099 C3019.758,178.32252 3018.78327,174.86806 3013.54309,174.86806 C3011.02438,174.86806 3009.33224,176.248284 3008.63822,177.558328 L3008.56804,177.558328 L3008.56804,175.281347 L3003.60079,175.281347 L3003.60079,191.953213 L3008.77859,191.953213 L3008.77859,183.703057 C3008.77859,181.527449 3009.19187,179.422021 3011.88994,179.422021 C3014.54122,179.422021 3014.58021,181.909545 3014.58021,183.843419 L3014.58021,191.953213 L3019.758,191.953213 Z" transform="translate(-2987 -160)" class="color000 svgShape"></path>
        </g>
    </symbol>

    <symbol id="github" viewBox="0 0 24 24">
        <g>
            <path d="m12 .5c-6.63 0-12 5.28-12 11.792 0 5.211 3.438 9.63 8.205 11.188.6.111.82-.254.82-.567 0-.28-.01-1.022-.015-2.005-3.338.711-4.042-1.582-4.042-1.582-.546-1.361-1.335-1.725-1.335-1.725-1.087-.731.084-.716.084-.716 1.205.082 1.838 1.215 1.838 1.215 1.07 1.803 2.809 1.282 3.495.981.108-.763.417-1.282.76-1.577-2.665-.295-5.466-1.309-5.466-5.827 0-1.287.465-2.339 1.235-3.164-.135-.298-.54-1.497.105-3.121 0 0 1.005-.316 3.3 1.209.96-.262 1.98-.392 3-.398 1.02.006 2.04.136 3 .398 2.28-1.525 3.285-1.209 3.285-1.209.645 1.624.24 2.823.12 3.121.765.825 1.23 1.877 1.23 3.164 0 4.53-2.805 5.527-5.475 5.817.42.354.81 1.077.81 2.182 0 1.578-.015 2.846-.015 3.229 0 .309.21.678.825.56 4.801-1.548 8.236-5.97 8.236-11.173 0-6.512-5.373-11.792-12-11.792z" data-original="#000000" class="active-path" data-old_color="#000000" fill="#263238"/>
        </g>
    </symbol>

    <symbol id="github-repo" viewBox="0 0 438.549 438.549">
        <g>
            <path d="M409.132,114.573c-19.608-33.596-46.205-60.194-79.798-79.8C295.736,15.166,259.057,5.365,219.271,5.365   c-39.781,0-76.472,9.804-110.063,29.408c-33.596,19.605-60.192,46.204-79.8,79.8C9.803,148.168,0,184.854,0,224.63   c0,47.78,13.94,90.745,41.827,128.906c27.884,38.164,63.906,64.572,108.063,79.227c5.14,0.954,8.945,0.283,11.419-1.996   c2.475-2.282,3.711-5.14,3.711-8.562c0-0.571-0.049-5.708-0.144-15.417c-0.098-9.709-0.144-18.179-0.144-25.406l-6.567,1.136   c-4.187,0.767-9.469,1.092-15.846,1c-6.374-0.089-12.991-0.757-19.842-1.999c-6.854-1.231-13.229-4.086-19.13-8.559   c-5.898-4.473-10.085-10.328-12.56-17.556l-2.855-6.57c-1.903-4.374-4.899-9.233-8.992-14.559   c-4.093-5.331-8.232-8.945-12.419-10.848l-1.999-1.431c-1.332-0.951-2.568-2.098-3.711-3.429c-1.142-1.331-1.997-2.663-2.568-3.997   c-0.572-1.335-0.098-2.43,1.427-3.289c1.525-0.859,4.281-1.276,8.28-1.276l5.708,0.853c3.807,0.763,8.516,3.042,14.133,6.851   c5.614,3.806,10.229,8.754,13.846,14.842c4.38,7.806,9.657,13.754,15.846,17.847c6.184,4.093,12.419,6.136,18.699,6.136   c6.28,0,11.704-0.476,16.274-1.423c4.565-0.952,8.848-2.383,12.847-4.285c1.713-12.758,6.377-22.559,13.988-29.41   c-10.848-1.14-20.601-2.857-29.264-5.14c-8.658-2.286-17.605-5.996-26.835-11.14c-9.235-5.137-16.896-11.516-22.985-19.126   c-6.09-7.614-11.088-17.61-14.987-29.979c-3.901-12.374-5.852-26.648-5.852-42.826c0-23.035,7.52-42.637,22.557-58.817   c-7.044-17.318-6.379-36.732,1.997-58.24c5.52-1.715,13.706-0.428,24.554,3.853c10.85,4.283,18.794,7.952,23.84,10.994   c5.046,3.041,9.089,5.618,12.135,7.708c17.705-4.947,35.976-7.421,54.818-7.421s37.117,2.474,54.823,7.421l10.849-6.849   c7.419-4.57,16.18-8.758,26.262-12.565c10.088-3.805,17.802-4.853,23.134-3.138c8.562,21.509,9.325,40.922,2.279,58.24   c15.036,16.18,22.559,35.787,22.559,58.817c0,16.178-1.958,30.497-5.853,42.966c-3.9,12.471-8.941,22.457-15.125,29.979   c-6.191,7.521-13.901,13.85-23.131,18.986c-9.232,5.14-18.182,8.85-26.84,11.136c-8.662,2.286-18.415,4.004-29.263,5.146   c9.894,8.562,14.842,22.077,14.842,40.539v60.237c0,3.422,1.19,6.279,3.572,8.562c2.379,2.279,6.136,2.95,11.276,1.995   c44.163-14.653,80.185-41.062,108.068-79.226c27.88-38.161,41.825-81.126,41.825-128.906   C438.536,184.851,428.728,148.168,409.132,114.573z" data-original="#000000" class="active-path" data-old_color="#000000" fill="#374957"/>
        </g>
    </symbol>

    <symbol id="arrow-left" viewBox="0 0 256 256">
        <g>
            <polygon points="207.093,30.187 176.907,0 48.907,128 176.907,256 207.093,225.813 109.28,128   " data-original="#000000" class="active-path" data-old_color="#000000" fill="#37474F"/>
        </g>
    </symbol>

    <symbol id="arrow-right" viewBox="0 0 306 306">
        <g>
            <polygon points="94.35,0 58.65,35.7 175.95,153 58.65,270.3 94.35,306 247.35,153   " data-original="#000000" class="active-path" data-old_color="#000000" fill="#37474F"/>
        </g>
    </symbol>

    <symbol id="arrow-prev" viewBox="0 0 512 512">
        <g>
            <path d="M492,236H68.442l70.164-69.824c7.829-7.792,7.859-20.455,0.067-28.284c-7.792-7.83-20.456-7.859-28.285-0.068    l-104.504,104c-0.007,0.006-0.012,0.013-0.018,0.019c-7.809,7.792-7.834,20.496-0.002,28.314c0.007,0.006,0.012,0.013,0.018,0.019    l104.504,104c7.828,7.79,20.492,7.763,28.285-0.068c7.792-7.829,7.762-20.492-0.067-28.284L68.442,276H492    c11.046,0,20-8.954,20-20C512,244.954,503.046,236,492,236z" data-original="#000000" class="active-path" data-old_color="#000000" fill="#797E82"/>
        </g>
    </symbol>

    <symbol id="arrow-next" viewBox="0 0 512 512">
        <g>
            <path d="M506.134,241.843c-0.006-0.006-0.011-0.013-0.018-0.019l-104.504-104c-7.829-7.791-20.492-7.762-28.285,0.068    c-7.792,7.829-7.762,20.492,0.067,28.284L443.558,236H20c-11.046,0-20,8.954-20,20c0,11.046,8.954,20,20,20h423.557    l-70.162,69.824c-7.829,7.792-7.859,20.455-0.067,28.284c7.793,7.831,20.457,7.858,28.285,0.068l104.504-104    c0.006-0.006,0.011-0.013,0.018-0.019C513.968,262.339,513.943,249.635,506.134,241.843z" data-original="#000000" class="active-path" data-old_color="#000000" fill="#9DA5AA"/>
        </g>
    </symbol>

    

</svg>